<?xml version="1.0" standalone="no"?>
<!DOCTYPE svg PUBLIC "-//W3C//DTD SVG 20010904//EN"
 "http://www.w3.org/TR/2001/REC-SVG-20010904/DTD/svg10.dtd">
<svg version="1.0" xmlns="http://www.w3.org/2000/svg"
 width="512.000000pt" height="512.000000pt" viewBox="0 0 512.000000 512.000000"
 preserveAspectRatio="xMidYMid meet">
<metadata>
Created by potrace 1.15, written by Peter Selinger 2001-2017
</metadata>
<g transform="translate(0.000000,512.000000) scale(0.100000,-0.100000)"
fill="#6d04f9" stroke="none">
<path d="M360 5101 c-91 -29 -142 -61 -211 -130 -70 -70 -106 -130 -133 -220
-14 -50 -16 -255 -16 -2191 0 -2343 -4 -2173 58 -2295 32 -64 143 -175 207
-207 122 -62 -48 -58 2295 -58 2343 0 2173 -4 2295 58 64 32 175 143 207 207
62 122 58 -48 58 2295 0 2343 4 2173 -58 2295 -32 64 -143 175 -207 207 -122
62 49 58 -2299 57 -2024 0 -2144 -1 -2196 -18z m1385 -1304 c139 -37 233 -86
314 -163 76 -71 117 -140 152 -254 20 -63 24 -96 23 -210 0 -114 -3 -144 -22
-195 -45 -120 -136 -226 -255 -297 -99 -60 -95 -56 -67 -64 14 -4 60 -25 102
-46 135 -68 232 -185 289 -348 19 -55 23 -86 23 -205 1 -117 -3 -153 -22 -220
-66 -229 -225 -388 -462 -464 -139 -45 -234 -51 -757 -51 l-493 0 0 1276 0
1275 538 -3 537 -4 100 -27z m2205 10 c237 -57 380 -157 460 -321 63 -127 86
-304 60 -447 -14 -77 -74 -191 -134 -252 -51 -53 -146 -122 -200 -145 -34 -15
-28 -23 39 -47 77 -27 180 -101 232 -163 104 -128 148 -274 140 -462 -13 -277
-138 -476 -368 -589 -188 -92 -201 -94 -821 -98 l-538 -4 0 1276 0 1276 533
-4 c443 -3 543 -7 597 -20z"/>
<path d="M910 3149 l0 -411 318 4 c289 4 323 7 382 26 166 54 265 165 292 326
22 136 -31 306 -115 368 -115 84 -195 98 -578 98 l-299 0 0 -411z"/>
<path d="M910 2016 l0 -466 310 0 c339 0 418 9 516 57 172 84 260 263 234 479
-5 43 -14 94 -19 112 -25 84 -107 179 -190 221 -95 49 -135 54 -503 58 l-348
5 0 -466z"/>
<path d="M3150 3149 l0 -411 318 4 c358 5 392 11 508 86 67 44 103 87 142 170
24 51 27 68 27 167 0 102 -3 115 -31 175 -42 89 -75 124 -147 160 -104 51
-183 60 -518 60 l-299 0 0 -411z"/>
<path d="M3150 2016 l0 -466 310 0 c244 0 327 3 388 16 264 54 401 258 363
539 -19 140 -95 256 -203 311 -104 53 -138 57 -510 61 l-348 5 0 -466z"/>
</g>
</svg>
